<svg xmlns="http://www.w3.org/2000/svg" viewBox="0 0 97.75 97.75" fill="#f99400">
  <path d="M48.92 40.5a8.37 8.37 0 008.37-8.44 8.38 8.38 0 00-8.41-8.4 8.4 8.4 0 00-8.44 8.5 8.39 8.39 0 008.48 8.35z"/>
  <path d="M48.88 0a48.88 48.88 0 100 97.75 48.88 48.88 0 000-97.75zm.06 14.86a17.22 17.22 0 01-.2 34.43 17.22 17.22 0 01.2-34.43zm19.29 41.2a20.69 20.69 0 01-7.46 4.81 35.05 35.05 0 01-8.46 1.9l.92.98c3.91 3.94 7.85 7.85 11.75 11.8a3.89 3.89 0 01.88 4.58 4.64 4.64 0 01-4.35 2.71 4.24 4.24 0 01-2.76-1.4c-2.95-2.98-5.97-5.9-8.86-8.93-.85-.88-1.25-.72-2 .05-2.97 3.06-5.99 6.08-9.03 9.07-1.36 1.35-2.99 1.6-4.57.82a4.63 4.63 0 01-2.67-4.26 4.26 4.26 0 011.43-2.86c3.88-3.87 7.74-7.75 11.6-11.63.27-.25.5-.53.88-.93-5.28-.55-10.03-1.84-14.1-5.03-.5-.4-1.03-.78-1.49-1.22-1.78-1.71-1.96-3.67-.55-5.69 1.2-1.73 3.23-2.19 5.33-1.2.41.2.8.44 1.17.7 7.59 5.2 18.01 5.35 25.63.23a6.95 6.95 0 012.5-1.3c1.8-.46 3.5.2 4.48 1.8 1.11 1.81 1.1 3.59-.27 5z"/>
</svg>
