<svg xmlns="http://www.w3.org/2000/svg" viewBox="0 0 100 100">
  <circle cx="50" cy="50.001" r="45" fill="#F99400"/>
  <g fill="#FFF" fill-rule="evenodd" clip-rule="evenodd">
    <path d="M45.724 59.257a19.599 19.599 0 01-4.574-1.662 21.874 21.874 0 01-1.514-.857c-1.451-.906-1.902-2.775-1.03-4.213.897-1.477 2.756-1.957 4.24-1.057 1.46.883 3.007 1.525 4.688 1.828 3.308.594 6.416.047 9.312-1.656.591-.348 1.188-.621 1.893-.617a3.095 3.095 0 012.961 2.184 3.059 3.059 0 01-1.259 3.477 19.243 19.243 0 01-5.854 2.498c-.09.021-.178.047-.304.08.085.092.151.164.221.234 1.854 1.854 3.709 3.705 5.561 5.562 1.083 1.086 1.311 2.576.592 3.818-1.035 1.789-3.415 2.086-4.906.604-1.848-1.838-3.686-3.684-5.527-5.525-.066-.066-.128-.137-.275-.297-.061.109-.094.215-.162.283-1.845 1.852-3.69 3.701-5.543 5.545-1.271 1.268-3.212 1.26-4.442-.004a3.078 3.078 0 01-.069-4.205c.147-.166.307-.322.463-.479l5.309-5.311c.061-.062.124-.131.219-.23zM50.005 29.567c5.805 0 10.541 4.738 10.54 10.543-.001 5.812-4.692 10.543-10.536 10.545-5.877.006-10.544-4.732-10.553-10.525-.01-5.813 4.693-10.547 10.549-10.563zm4.357 10.553c.002-2.402-1.941-4.361-4.331-4.367-2.422-.006-4.395 1.936-4.399 4.328-.004 2.396 1.939 4.391 4.284 4.393 2.485.002 4.444-1.916 4.446-4.354z"/>
  </g>
</svg>
