<svg xmlns="http://www.w3.org/2000/svg" viewBox="0 0 112.2 112.2">
  <circle cx="56.1" cy="56.1" r="56.1" fill="#4d76a1"/>
  <path fill="#fff" fill-rule="evenodd" d="M53.98 80.7h4.4s1.33-.14 2.01-.88c.63-.67.6-1.93.6-1.93s-.08-5.9 2.66-6.78c2.7-.86 6.18 5.71 9.85 8.24 2.79 1.9 4.9 1.49 4.9 1.49l9.84-.14s5.14-.32 2.7-4.36c-.2-.33-1.42-3-7.31-8.46-6.17-5.73-5.34-4.8 2.09-14.7 4.52-6.04 6.33-9.72 5.77-11.3-.54-1.5-3.87-1.1-3.87-1.1l-11.08.07s-.82-.11-1.43.25c-.6.36-.97 1.19-.97 1.19s-1.76 4.67-4.1 8.64c-4.93 8.37-6.9 8.81-7.7 8.3-1.88-1.22-1.41-4.88-1.41-7.47 0-8.12 1.23-11.5-2.4-12.38-1.2-.3-2.09-.48-5.17-.51-3.95-.05-7.3 0-9.19.94-1.26.61-2.23 1.99-1.64 2.07.73.1 2.4.44 3.27 1.64 1.13 1.54 1.1 5.01 1.1 5.01s.65 9.56-1.53 10.74c-1.5.82-3.54-.84-7.94-8.44-2.25-3.9-3.95-8.2-3.95-8.2s-.33-.8-.91-1.23c-.71-.52-1.7-.69-1.7-.69l-10.53.07s-1.58.05-2.16.73c-.52.61-.04 1.88-.04 1.88s8.24 19.28 17.57 28.99c8.55 8.9 18.27 8.32 18.27 8.32z" clip-rule="evenodd"/>
</svg>
