<?xml version="1.0" standalone="no"?>
<!DOCTYPE svg PUBLIC "-//W3C//DTD SVG 20010904//EN"
 "http://www.w3.org/TR/2001/REC-SVG-20010904/DTD/svg10.dtd">
<svg version="1.0" xmlns="http://www.w3.org/2000/svg"
 width="1200.000000pt" height="1200.000000pt" viewBox="0 0 1200.000000 1200.000000"
 preserveAspectRatio="xMidYMid meet">
<metadata>
Created by potrace 1.11, written by Peter Selinger 2001-2013
</metadata>
<g transform="translate(0.000000,1200.000000) scale(0.100000,-0.100000)"
fill="#000000" stroke="none">
<path d="M1175 9901 c-55 -24 -207 -152 -335 -281 -664 -663 -941 -1532 -804
-2525 69 -497 243 -935 523 -1310 98 -132 358 -390 493 -490 211 -156 463
-298 694 -389 l91 -36 3729 0 c2541 0 3766 -3 3844 -11 235 -21 427 -76 635
-180 161 -80 288 -172 420 -304 133 -133 217 -250 297 -412 l60 -123 32 22
c114 79 371 329 492 478 342 424 530 862 611 1425 24 169 24 596 -1 790 -58
464 -182 846 -386 1180 -138 227 -344 465 -551 637 -441 366 -1055 614 -1714
692 -71 8 -150 18 -175 22 -25 3 -1357 9 -2960 13 -2078 6 -2949 11 -3035 19
-537 52 -863 128 -1161 271 -215 103 -365 223 -482 381 -61 83 -80 102 -134
130 -47 25 -129 26 -183 1z m6917 -2081 c53 -15 89 -61 233 -303 71 -119 132
-217 135 -217 3 0 68 106 144 236 85 143 151 243 168 255 73 53 152 45 212
-21 32 -36 36 -46 36 -95 0 -70 -3 -76 -206 -401 l-164 -262 181 -284 c100
-155 192 -305 205 -333 40 -85 28 -154 -36 -208 -59 -50 -151 -45 -207 12 -15
15 -95 139 -177 275 -83 136 -152 249 -155 251 -3 2 -76 -112 -161 -252 -95
-157 -167 -266 -189 -283 -66 -55 -149 -49 -211 15 -27 28 -34 44 -38 88 -6
71 2 85 222 431 97 152 176 282 176 288 0 7 -77 135 -171 286 -101 161 -178
295 -187 325 -25 85 13 164 93 192 49 17 51 17 97 5z m-4239 -23 c88 -57 90
-195 4 -247 -30 -19 -52 -20 -329 -20 l-298 0 0 -200 0 -200 235 0 c261 0 279
-4 315 -63 28 -45 26 -115 -3 -158 -40 -60 -57 -64 -314 -67 l-233 -3 0 -195
0 -194 308 0 c291 0 309 -1 340 -20 43 -26 76 -98 66 -143 -12 -59 -34 -88
-80 -108 -41 -19 -65 -20 -448 -17 -393 3 -405 4 -433 24 -15 12 -37 36 -48
55 -19 33 -20 52 -20 749 0 665 1 717 18 747 20 38 54 62 100 74 17 4 203 7
412 6 348 -2 383 -4 408 -20z m1295 0 c91 -49 96 -194 10 -247 -30 -18 -50
-20 -200 -20 l-167 0 -3 -632 c-3 -704 -1 -675 -71 -718 -67 -41 -184 -18
-219 42 -10 18 -14 160 -18 663 l-5 640 -175 5 c-123 4 -181 9 -195 18 -57 39
-79 119 -52 184 18 42 53 68 105 79 21 4 244 6 497 6 422 -2 463 -3 493 -20z
m904 -6 c161 -47 297 -157 361 -292 42 -89 57 -155 57 -252 0 -154 -52 -280
-160 -388 -72 -72 -142 -116 -240 -150 -54 -18 -93 -23 -237 -27 l-173 -5 0
-201 c0 -172 -3 -206 -18 -235 -25 -50 -63 -74 -124 -78 -65 -5 -112 17 -145
66 l-23 34 0 719 c0 648 2 723 16 755 36 75 75 83 384 78 195 -4 246 -8 302
-24z m3838 19 c46 -13 106 -63 129 -108 22 -44 426 -1275 441 -1345 14 -64 0
-113 -43 -155 -42 -40 -87 -54 -139 -43 -77 18 -108 66 -168 259 l-35 112
-259 -3 -259 -2 -33 -117 c-37 -136 -66 -193 -113 -225 -65 -44 -161 -22 -209
48 -44 64 -36 100 187 799 112 349 214 654 227 677 53 93 163 134 274 103z
m-7313 -20 c66 -40 63 -4 63 -807 0 -704 -1 -729 -20 -760 -26 -43 -68 -63
-132 -63 -63 0 -109 24 -135 72 -17 31 -18 79 -21 666 l-3 632 -259 0 -260 0
0 -627 c0 -701 3 -672 -70 -721 -49 -33 -146 -28 -186 8 -55 52 -54 31 -54
802 0 791 -3 753 65 798 29 19 49 20 505 20 454 0 476 -1 507 -20z m4193 5
c15 -8 37 -25 47 -39 11 -13 93 -180 183 -370 90 -190 166 -346 169 -346 4 0
73 154 156 343 126 290 155 348 191 385 39 39 45 42 95 42 41 0 63 -6 91 -25
46 -31 74 -97 63 -152 -4 -21 -99 -240 -212 -488 -113 -247 -237 -520 -275
-605 -108 -239 -171 -314 -306 -361 -46 -17 -76 -20 -157 -17 -114 5 -167 25
-206 80 -30 42 -31 117 -3 155 42 56 68 67 172 73 67 3 106 10 123 22 16 10
40 49 63 101 l38 85 -223 459 c-193 396 -223 465 -226 513 -5 64 17 108 69
140 39 24 107 26 148 5z"/>
<path d="M5660 7251 l0 -281 133 0 c203 0 270 29 324 137 23 49 28 71 28 138
0 101 -22 161 -77 210 -66 60 -96 68 -260 73 l-148 4 0 -281z"/>
<path d="M9801 7394 c-6 -22 -44 -156 -84 -299 l-74 -260 170 -3 c93 -1 171
-1 173 0 4 4 -162 587 -169 595 -3 3 -10 -12 -16 -33z"/>
<path d="M1883 4078 c4 -604 5 -648 25 -733 63 -278 178 -484 386 -690 137
-136 243 -211 410 -291 171 -80 319 -121 521 -144 59 -6 1387 -10 3813 -10
l3723 0 -4 643 c-3 604 -5 647 -24 732 -63 277 -183 495 -378 690 -209 209
-462 345 -774 417 l-96 23 -3803 2 -3803 3 4 -642z m7619 483 c293 -51 533
-174 739 -380 185 -185 286 -367 345 -621 15 -65 18 -148 21 -643 l4 -567
-3703 3 c-4113 3 -3742 -3 -3965 68 -382 122 -700 413 -831 763 -75 200 -75
197 -79 829 l-4 567 3679 0 c3600 0 3682 0 3794 -19z"/>
<path d="M6308 4089 c-253 -33 -455 -212 -523 -464 -8 -33 -18 -107 -21 -165
-7 -130 10 -221 63 -329 47 -96 168 -221 260 -269 225 -117 541 -85 647 65 25
36 30 54 34 123 2 44 2 80 -1 80 -3 0 -28 -15 -56 -34 -85 -57 -170 -81 -291
-80 -127 0 -194 22 -267 89 -97 86 -137 199 -131 369 3 100 7 118 35 178 39
82 100 145 179 184 56 28 65 29 189 29 150 -1 209 -18 295 -86 l50 -39 0 80
c0 92 -16 134 -72 187 -46 44 -114 71 -210 83 -91 11 -85 11 -180 -1z"/>
<path d="M9260 4083 c-42 -4 -170 -30 -222 -44 l-38 -10 0 -552 0 -553 23 -44
c30 -59 72 -80 159 -80 l68 0 0 246 0 246 23 -6 c103 -31 173 -38 251 -27 153
21 260 92 320 211 66 132 71 278 13 403 -49 107 -160 185 -297 206 -61 10
-223 12 -300 4z m290 -235 c60 -31 83 -78 84 -172 0 -87 -26 -143 -81 -177
-33 -21 -51 -24 -133 -24 -52 0 -112 4 -133 8 l-37 8 2 182 3 182 30 6 c17 4
73 7 125 8 81 1 103 -2 140 -21z"/>
<path d="M3036 4069 c-3 -8 -14 -79 -25 -159 -51 -360 -90 -918 -70 -994 21
-79 78 -116 179 -116 l60 0 0 34 c0 112 23 566 35 699 8 86 15 162 15 167 0 6
4 10 9 10 11 0 42 -83 168 -455 105 -308 125 -355 175 -402 42 -40 76 -53 139
-53 l50 0 40 83 c22 45 83 215 135 377 112 344 153 455 164 443 10 -10 37
-371 46 -608 8 -207 20 -245 86 -275 29 -13 65 -20 111 -20 l67 0 0 48 c0 185
-52 925 -70 1008 -31 140 -109 213 -228 217 l-56 2 -38 -50 c-21 -27 -56 -88
-79 -134 -36 -74 -182 -501 -234 -683 -11 -38 -23 -68 -26 -68 -4 0 -10 17
-14 37 -14 76 -248 719 -276 760 -56 81 -153 128 -285 140 -58 5 -75 3 -78 -8z"/>
<path d="M4959 4038 c-47 -65 -117 -199 -170 -323 -109 -257 -216 -615 -226
-755 -9 -126 26 -164 147 -158 l63 3 27 138 c16 76 31 149 34 162 l6 25 255 0
c233 0 254 -1 259 -17 3 -10 12 -63 21 -118 9 -57 23 -111 33 -125 32 -45 97
-70 180 -70 l74 0 -7 43 c-64 423 -290 1084 -402 1176 -48 40 -118 61 -200 61
-63 0 -63 0 -94 -42z m286 -549 c25 -75 45 -141 45 -148 0 -8 -56 -11 -195
-11 -107 0 -195 3 -195 7 0 43 84 277 150 418 l42 90 54 -110 c29 -60 74 -171
99 -246z"/>
<path d="M6904 4069 c-18 -5 -46 -25 -63 -44 -28 -33 -31 -42 -31 -105 l0 -70
180 0 180 0 0 -447 c0 -292 4 -462 11 -488 22 -80 78 -115 184 -115 l65 0 0
525 0 525 118 0 c140 0 178 9 219 52 39 40 53 76 53 134 l0 44 -442 -1 c-244
0 -457 -5 -474 -10z"/>
<path d="M8085 4065 c-112 -39 -138 -156 -139 -615 -1 -234 2 -285 17 -339 25
-90 63 -155 124 -211 95 -87 216 -115 458 -108 122 4 158 8 195 25 72 32 84
53 88 143 l4 78 -38 -9 c-69 -17 -372 -23 -439 -9 -112 23 -155 96 -155 260
l0 70 195 0 c269 0 295 13 295 142 l0 68 -246 0 -247 0 7 108 c4 59 9 126 12
150 l6 42 249 0 c265 0 293 4 334 50 15 16 21 40 23 96 l4 74 -353 0 c-278 -1
-363 -4 -394 -15z"/>
</g>
</svg>
